<?xml version="1.0" encoding="utf-8"?>
<!-- Generator: Adobe Illustrator 18.1.0, SVG Export Plug-In . SVG Version: 6.00 Build 0)  -->
<svg version="1.0" id="Layer_1" xmlns="http://www.w3.org/2000/svg" xmlns:xlink="http://www.w3.org/1999/xlink" x="0px" y="0px"
	 viewBox="0 0 150 150" enable-background="new 0 0 150 150" xml:space="preserve">
<g>
	<path fill="none" d="M77.5,37.4C77.4,37.4,77.4,37.4,77.5,37.4c-10,0-18.4,3.6-25.3,10.8c-6.9,7.1-10.3,15.6-10.4,25.5
		c0,0.1,0,0.1,0,0.2c0,9.9,3.4,18.5,10.4,25.6c6.9,7,15.3,10.7,25.2,10.7c0,0,0,0,0.1,0c5.6,0,10.8-1.2,15.4-3.5l21.2,5.8l-8.4-16.5
		c4.9-6.3,7.3-13.7,7.3-22c0-0.1,0-0.1,0-0.2c0-9.9-3.5-18.3-10.3-25.5C95.8,41,87.4,37.4,77.5,37.4z"/>
	<path fill="#2BA8E0" d="M77.3,37.4c9.9,0,18.4,3.8,25.3,11c6.8,7.1,10.3,15.7,10.4,25.7h25.3c0-13-3.5-24.1-10.4-33.9
		c7.2-0.2,13-6.2,13-13.5c0-7.4-6-13.5-13.4-13.5c-7.1,0-12.9,5.5-13.4,12.5C103.4,17.6,91,13.5,77.2,13.5l-0.2,0v23.9
		C77,37.4,77.2,37.4,77.3,37.4z"/>
	<path fill="#8BC541" d="M52,48.3c6.9-7.1,15-10.9,25-10.9V13.5c-14,0-27.2,4.6-38.2,13.6c-0.4-7-6.1-12.6-13.3-12.6
		c-7.4,0-13.4,6-13.4,13.4c0,7.4,6,13.4,13.4,13.4c0.2,0,0.3,0.2,0.5,0.2C19.8,51,16.6,62,16.6,74h25.3C41.9,64,45.1,55.5,52,48.3z"
		/>
	<path fill="#F15B27" d="M52,99.2C45.1,92.2,41.7,83.9,41.7,74c0-0.1,0.1,0,0.1,0H16.6c0,0,0-0.1,0,0c0,14.5,4.5,26.9,13.6,37.6
		c-0.8-0.1-1.6-0.3-2.4-0.3c-7.4,0-13.4,6-13.4,13.4c0,7.4,6,13.4,13.4,13.4c7.4,0,13.4-6,13.4-13.4c0-1.1-0.3-2.1-0.6-3.1
		c10.6,8.1,23.4,12.1,36.4,12.1v-23.9C67,109.8,58.9,106.3,52,99.2z"/>
	<path fill="#F69320" d="M125.9,110.6c-0.2,0-0.4,0-0.6,0c8.5-10.5,12.7-22.8,12.7-36.8c0-0.1,0,0.2,0,0.2h-25.1c0,0,0-0.1,0,0
		c0,8.4-2.4,15.6-7.3,21.9l8.4,16.4l-21.2-5.8c-4.6,2.3-9.8,3.5-15.4,3.5c0,0-0.5,0-0.5,0v23.7l0.2,0c13.2,0,25-3.7,35.2-11
		c0,0.4,0,0.8,0,1.3c0,7.4,6,13.4,13.4,13.4s13.4-6,13.4-13.4C139.3,116.6,133.3,110.6,125.9,110.6z"/>
</g>
</svg>
